<?xml version="1.0" ?><!DOCTYPE svg  PUBLIC '-//W3C//DTD SVG 1.1//EN'  'http://www.w3.org/Graphics/SVG/1.1/DTD/svg11.dtd'><svg height="512px" style="enable-background:new 0 0 512 512;" version="1.1" viewBox="0 0 512 512" width="512px" xml:space="preserve" xmlns="http://www.w3.org/2000/svg" xmlns:xlink="http://www.w3.org/1999/xlink"><g id="comp_x5F_160-hackerrank"><path d="   M446.197,146.001c-12.452-21.442-165.317-110-190.213-110c-24.888,0-177.812,88.335-190.195,110   c-12.384,21.664-12.453,198.343,0,220.009c12.452,21.654,165.324,109.989,190.195,109.989c24.87,0,177.761-88.445,190.205-109.999   C458.631,344.446,458.64,167.442,446.197,146.001z M307.521,391.97c-3.404,0-35.158-30.739-32.656-33.25   c0.747-0.746,5.38-1.271,15.082-1.572c0-22.54,0.43-75.067,0.43-77.147h-68.69c0,6.102-0.394,33.374,1.179,64.896   c0.195,3.901-1.358,5.12-4.934,5.104c-8.707-0.024-17.419-0.095-26.134-0.068c-3.523,0.009-5.045-1.314-4.933-5.25   c0.79-28.736,2.544-76.531-0.128-187.088v-2.724c-8.311-0.302-14.078-0.826-14.833-1.582c-2.51-2.509,29.682-33.248,33.077-33.248   c3.403,0,35.381,30.747,32.889,33.248c-0.748,0.748-6.79,1.28-14.412,1.582v2.715c-2.079,22.129-1.743,70.243-2.259,92.415h68.973   c0-3.91,0.335-33.428-1.031-75.45c-0.087-2.914,0.815-4.443,3.617-4.469c9.513-0.069,19.035-0.112,28.558-0.052   c2.973,0.017,3.927,1.478,3.867,4.623c-3.138,164.39-0.568,154.644-0.568,182.486c7.623,0.301,14.456,0.826,15.204,1.583   C342.29,361.221,310.923,391.97,307.521,391.97L307.521,391.97z" style="fill:none;stroke:#000000;stroke-width:20;stroke-linecap:round;stroke-linejoin:round;stroke-miterlimit:10;"/></g><g id="Layer_1"/></svg>